<?xml version="1.0" encoding="iso-8859-1"?>
<!-- Generator: Adobe Illustrator 19.0.0, SVG Export Plug-In . SVG Version: 6.00 Build 0)  -->
<svg version="1.1" id="Capa_1" xmlns="http://www.w3.org/2000/svg" xmlns:xlink="http://www.w3.org/1999/xlink" x="0px" y="0px"
	 viewBox="0 0 512 512" style="enable-background:new 0 0 512 512;" xml:space="preserve">
<path style="fill:#FFFFFF;" d="M420,296c0,17.673-14.327,32-32,32H124c-17.673,0-32-14.327-32-32V42c0-17.673,14.327-32,32-32h264
	c17.673,0,32,14.327,32,32V296z"/>
<path style="fill:#FF5A5A;" d="M388,10H224.127c-17.673,0-32,14.327-32,32v40H420V42C420,24.327,405.673,10,388,10z"/>
<path style="fill:#231F20;" d="M100.141,82h315.908"/>
<path style="fill:#78D2FA;" d="M456.75,296.5H348l-34.993-27.995c-1.907,2.311-3.583,4.817-5.007,7.479V296.5h-5.305
	c-0.004,0.263-0.02,0.522-0.02,0.786v115c0,24.991,20.259,45.25,45.25,45.25H501.98c0.005-0.263,0.02-0.522,0.02-0.786v-115
	C502,316.759,481.741,296.5,456.75,296.5z"/>
<path style="fill:#A5DC69;" d="M240.752,281.709c0-19.94-5.059-38.698-13.962-55.062l33.973-33.973H198.76
	c-14.106-11.64-31.028-19.986-49.588-23.878c-39.335,18.381-66.594,58.292-66.594,104.577c0,55.562,39.277,101.946,91.579,112.914
	C213.494,367.906,240.752,327.995,240.752,281.709z"/>
<path d="M258.095,56H377c5.523,0,10-4.478,10-10s-4.477-10-10-10H258.095c-5.523,0-10,4.478-10,10S252.572,56,258.095,56z"/>
<path d="M169.98,56c2.63,0,5.21-1.07,7.07-2.931c1.86-1.859,2.93-4.439,2.93-7.069s-1.07-5.21-2.93-7.07S172.61,36,169.98,36
	c-2.64,0-5.22,1.069-7.08,2.93s-2.92,4.44-2.92,7.07s1.06,5.21,2.92,7.069C164.77,54.93,167.34,56,169.98,56z"/>
<path d="M131.95,56c2.63,0,5.21-1.07,7.07-2.931c1.86-1.859,2.93-4.439,2.93-7.069s-1.07-5.21-2.93-7.07
	c-1.86-1.86-4.44-2.93-7.07-2.93s-5.21,1.069-7.07,2.93s-2.93,4.44-2.93,7.07s1.07,5.21,2.93,7.069
	C126.74,54.93,129.32,56,131.95,56z"/>
<path d="M208,56c2.63,0,5.21-1.07,7.07-2.931C216.93,51.21,218,48.63,218,46s-1.07-5.21-2.93-7.07S210.63,36,208,36
	s-5.21,1.069-7.07,2.93C199.07,40.79,198,43.37,198,46s1.07,5.21,2.93,7.069C202.79,54.93,205.37,56,208,56z"/>
<path d="M297,134.044c0-5.522-4.477-10-10-10h-41c-5.523,0-10,4.478-10,10s4.477,10,10,10h41
	C292.523,144.044,297,139.566,297,134.044z"/>
<path d="M327.849,144.044h40.917c5.523,0,10-4.478,10-10s-4.477-10-10-10h-40.917c-5.523,0-10,4.478-10,10
	S322.326,144.044,327.849,144.044z"/>
<path d="M368.766,220.011c-0.001,0-0.002,0-0.003,0l-10.645,0.004c-5.522,0.002-9.998,4.48-9.996,10.004
	c0.002,5.521,4.479,9.996,10,9.996c0.001,0,0.002,0,0.004,0l10.644-0.004c5.522-0.002,9.998-4.48,9.996-10.004
	C378.764,224.485,374.287,220.011,368.766,220.011z"/>
<path d="M322,220.036c-0.001,0-0.003,0-0.005,0l-38.649,0.021c-5.523,0.003-9.998,4.482-9.995,10.005
	c0.003,5.521,4.479,9.995,10,9.995c0.001,0,0.003,0,0.005,0l38.649-0.021c5.523-0.003,9.998-4.482,9.995-10.005
	C331.997,224.51,327.521,220.036,322,220.036z"/>
<path d="M333,172.042h-33.427c-5.523,0-10,4.478-10,10s4.477,10,10,10H333c5.523,0,10-4.478,10-10S338.523,172.042,333,172.042z"/>
<path d="M368.77,172.04c-2.64,0-5.21,1.069-7.08,2.93c-1.86,1.86-2.92,4.44-2.92,7.07s1.06,5.21,2.92,7.069
	c1.87,1.87,4.44,2.931,7.08,2.931c2.63,0,5.2-1.061,7.07-2.931c1.86-1.859,2.93-4.439,2.93-7.069s-1.07-5.21-2.93-7.07
	C373.97,173.109,371.4,172.04,368.77,172.04z"/>
<path d="M374,492c-2.63,0-5.21,1.069-7.07,2.93c-1.86,1.86-2.93,4.44-2.93,7.07s1.07,5.21,2.93,7.069
	c1.86,1.86,4.44,2.931,7.07,2.931s5.21-1.07,7.07-2.931c1.86-1.859,2.93-4.439,2.93-7.069s-1.07-5.21-2.93-7.07S376.63,492,374,492z
	"/>
<path d="M456.75,286.5H430V42c0-23.159-18.841-42-42-42H124c-23.159,0-42,18.841-42,42v122.072C34.18,181.761,0,227.818,0,281.71
	c0,69.133,56.244,125.376,125.376,125.376c47.857,0,89.531-26.957,110.653-66.479c-0.008,0.382-0.029,0.76-0.029,1.143v115
	c0,30.465,24.785,55.25,55.25,55.25h46.727c5.523,0,10-4.478,10-10s-4.477-10-10-10H291.25c-19.437,0-35.25-15.813-35.25-35.25v-115
	c0-19.437,15.813-35.25,35.25-35.25H308c5.523,0,10-4.478,10-10v-11.193l23.753,19.002c1.773,1.419,3.977,2.191,6.247,2.191h108.75
	c19.437,0,35.25,15.813,35.25,35.25v115c0,19.437-15.813,35.25-35.25,35.25h-40.701c-5.523,0-10,4.478-10,10s4.477,10,10,10h40.701
	c30.465,0,55.25-24.785,55.25-55.25v-115C512,311.285,487.215,286.5,456.75,286.5z M124,20h264c12.131,0,22,9.869,22,22v30H102V42
	C102,29.869,111.869,20,124,20z M125.376,387.086C67.271,387.086,20,339.814,20,281.71c0-58.105,47.271-105.377,105.376-105.377
	c24.419,0,48.22,8.543,67.019,24.055c1.792,1.479,4.042,2.287,6.365,2.287h37.86l-16.902,16.901
	c-3.134,3.134-3.831,7.957-1.713,11.851c8.339,15.326,12.747,32.714,12.747,50.283C230.752,339.814,183.481,387.086,125.376,387.086
	z M314.247,256.691c-3.002-2.4-7.114-2.869-10.579-1.204c-3.464,1.665-5.668,5.169-5.668,9.013v22h-6.75
	c-17.427,0-32.985,8.119-43.119,20.763c1.716-8.253,2.621-16.799,2.621-25.553c0-18.366-4.054-36.575-11.777-53.105l28.858-28.858
	c2.86-2.86,3.716-7.161,2.168-10.898c-1.548-3.736-5.194-6.173-9.239-6.173h-58.494c-21.902-17.012-49.063-26.342-76.892-26.342
	c-7.988,0-15.8,0.76-23.376,2.195V92h308v194.5h-58.492L314.247,256.691z"/>
<path d="M310.023,431.25c5.523,0,10-4.478,10-10v-44c0-5.522-4.477-10-10-10s-10,4.478-10,10v12h-11.922v-12c0-5.522-4.477-10-10-10
	s-10,4.478-10,10v44c0,5.522,4.477,10,10,10s10-4.478,10-10v-12h11.922v12C300.023,426.772,304.5,431.25,310.023,431.25z"/>
<path d="M455.5,367.25c-5.523,0-10,4.478-10,10v44c0,5.522,4.477,10,10,10h18.892c5.523,0,10-4.478,10-10s-4.477-10-10-10H465.5v-34
	C465.5,371.728,461.023,367.25,455.5,367.25z"/>
<path d="M364.07,387.25c5.523,0,10-4.478,10-10s-4.477-10-10-10h-26.093c-5.523,0-10,4.478-10,10s4.477,10,10,10h3.046v34
	c0,5.522,4.477,10,10,10s10-4.478,10-10v-34H364.07z"/>
<path d="M414.797,401.384v19.866c0,5.522,4.477,10,10,10s10-4.478,10-10v-44c0-4.045-2.437-7.691-6.173-9.239
	c-3.735-1.544-8.037-0.692-10.898,2.168l-9.742,9.742l-9.742-9.742c-2.86-2.86-7.163-3.714-10.898-2.168
	c-3.737,1.548-6.173,5.194-6.173,9.239v44c0,5.522,4.477,10,10,10s10-4.478,10-10v-19.866c1.847,1.719,4.281,2.68,6.813,2.68
	S412.95,403.103,414.797,401.384z"/>
<path d="M73.486,265.14c4.426,0,8.587,1.724,11.717,4.854c3.905,3.904,10.238,3.905,14.142,0c3.905-3.905,3.906-10.237,0-14.143
	c-6.907-6.907-16.091-10.711-25.859-10.711s-18.952,3.804-25.859,10.711c-6.908,6.907-10.711,16.091-10.711,25.859
	s3.804,18.951,10.711,25.859c7.129,7.129,16.494,10.693,25.859,10.693s18.729-3.564,25.859-10.693
	c3.905-3.905,3.906-10.237,0-14.143c-3.904-3.903-10.237-3.903-14.142,0c-6.462,6.461-16.974,6.461-23.434,0
	c-3.13-3.13-4.854-7.291-4.854-11.717c0-4.427,1.724-8.587,4.854-11.717C64.899,266.862,69.06,265.14,73.486,265.14z"/>
<path d="M131.004,265.14h13.285c5.523,0,10-4.478,10-10s-4.477-10-10-10h-13.285c-12.839,0-23.285,10.445-23.285,23.285
	s10.446,23.285,23.285,23.285c1.812,0,3.285,1.474,3.285,3.285s-1.474,3.285-3.285,3.285h-13.285c-5.523,0-10,4.478-10,10
	s4.477,10,10,10h13.285c12.839,0,23.285-10.445,23.285-23.285s-10.446-23.285-23.285-23.285c-1.812,0-3.285-1.474-3.285-3.285
	S129.193,265.14,131.004,265.14z"/>
<path d="M184.675,265.14h13.285c5.523,0,10-4.478,10-10s-4.477-10-10-10h-13.285c-12.839,0-23.285,10.445-23.285,23.285
	s10.446,23.285,23.285,23.285c1.812,0,3.285,1.474,3.285,3.285s-1.474,3.285-3.285,3.285H171.39c-5.523,0-10,4.478-10,10
	s4.477,10,10,10h13.285c12.839,0,23.285-10.445,23.285-23.285s-10.446-23.285-23.285-23.285c-1.812,0-3.285-1.474-3.285-3.285
	S182.864,265.14,184.675,265.14z"/>
<g>
</g>
<g>
</g>
<g>
</g>
<g>
</g>
<g>
</g>
<g>
</g>
<g>
</g>
<g>
</g>
<g>
</g>
<g>
</g>
<g>
</g>
<g>
</g>
<g>
</g>
<g>
</g>
<g>
</g>
</svg>
